<?xml version="1.0" encoding="UTF-8"?>
<svg id="b" data-name="Layer 2" xmlns="http://www.w3.org/2000/svg" viewBox="0 0 592.17 621.09">
  <g id="c" data-name="Layer 1">
    <path d="M226.13,572.46c39.26,47.31,116.33,58.59,173.82,40.38,64.79-20.53,96.13-75.81,132.22-139.42,29.75-52.43,54.8-109.14,59.33-169.25,9.58-127.26-83.09-251.28-204.73-289.87C265.13-24.29,125.08,17.91,35.31,108.61,14.65,129.48-4.83,157.06,1.07,185.83c4.26,20.77,21.15,36.84,39.6,47.29,18.45,10.45,39.01,16.64,57.91,26.26,51.26,26.07,86.31,84.7,94.95,131.88,8.02,43.8-9.55,52.33,1.4,105.32,4.32,20.9,10.53,50.99,31.19,75.89Z" fill="#9d76c1"/>
    <path d="M250.57,541.36c35.33,42.57,104.67,52.72,156.4,36.33,58.3-18.47,86.49-68.22,118.97-125.45,26.77-47.17,49.31-98.2,53.38-152.28,8.62-114.5-74.76-226.09-184.21-260.82-109.45-34.73-235.46,3.24-316.23,84.85-18.59,18.78-36.12,43.6-30.8,69.48,3.84,18.69,19.03,33.15,35.63,42.55,16.6,9.41,35.1,14.97,52.11,23.62,46.12,23.46,77.66,76.21,85.43,118.66,7.21,39.41-8.59,47.08,1.26,94.76,3.88,18.8,9.48,45.88,28.07,68.28Z" fill="#713abe"/>
  </g>
</svg>